<?xml version="1.0" encoding="UTF-8" standalone="no"?>
<!-- Created with Inkscape (http://www.inkscape.org/) -->

<svg
   width="210mm"
   height="297mm"
   viewBox="0 0 210 297"
   version="1.1"
   id="svg1"
   inkscape:version="1.4.3 (0d15f75, 2025-12-25)"
   sodipodi:docname="logo_datamaind.svg"
   xmlns:inkscape="http://www.inkscape.org/namespaces/inkscape"
   xmlns:sodipodi="http://sodipodi.sourceforge.net/DTD/sodipodi-0.dtd"
   xmlns="http://www.w3.org/2000/svg"
   xmlns:svg="http://www.w3.org/2000/svg">
  <sodipodi:namedview
     id="namedview1"
     pagecolor="#ffffff"
     bordercolor="#000000"
     borderopacity="0.25"
     inkscape:showpageshadow="2"
     inkscape:pageopacity="0.0"
     inkscape:pagecheckerboard="0"
     inkscape:deskcolor="#d1d1d1"
     inkscape:document-units="mm"
     inkscape:zoom="0.5"
     inkscape:cx="294"
     inkscape:cy="333"
     inkscape:window-width="1366"
     inkscape:window-height="697"
     inkscape:window-x="-8"
     inkscape:window-y="-8"
     inkscape:window-maximized="1"
     inkscape:current-layer="layer1" />
  <defs
     id="defs1">
    <inkscape:perspective
       sodipodi:type="inkscape:persp3d"
       inkscape:vp_x="0 : 148.5 : 1"
       inkscape:vp_y="0 : 1000 : 0"
       inkscape:vp_z="210 : 148.5 : 1"
       inkscape:persp3d-origin="105 : 99 : 1"
       id="perspective2" />
  </defs>
  <g
     inkscape:label="Camada 1"
     inkscape:groupmode="layer"
     id="layer1">
    <g
       sodipodi:type="inkscape:box3d"
       id="g2"
       style="fill:#000000"
       inkscape:perspectiveID="#perspective2"
       inkscape:corner0="0.53330953 : 0.10032482 : 0 : 0.46669047"
       inkscape:corner7="0.70680951 : 0.19361639 : 0.25 : 1" />
    <rect
       style="fill:#8b5cf6;fill-opacity:1;stroke-width:0.0433384"
       id="rect12"
       width="18.201727"
       height="64.652855"
       x="116.10211"
       y="62.110138" />
    <rect
       style="fill:#8b5cf6;fill-opacity:1;stroke-width:0.433819"
       id="rect12-2"
       width="13.668534"
       height="26.663044"
       x="82.535278"
       y="99.129211" />
    <rect
       style="fill:#8b5cf6;fill-opacity:1;stroke-width:0.433819"
       id="rect12-1"
       width="16.371197"
       height="51.039139"
       x="97.681297"
       y="75.358742" />
    <ellipse
       style="fill:#8b5cf6;fill-opacity:1;stroke-width:0.433819"
       id="path13"
       cx="116.80871"
       cy="51.667637"
       rx="7.0818324"
       ry="6.1882391" />
    <ellipse
       style="fill:#8b5cf6;fill-opacity:1;stroke-width:0.433819"
       id="path13-6"
       cx="81.194099"
       cy="66.517479"
       rx="7.0818324"
       ry="6.1882391" />
    <ellipse
       style="fill:#8b5cf6;fill-opacity:1;stroke-width:0.433819"
       id="path13-6-1"
       cx="61.710636"
       cy="94.424606"
       rx="7.0818324"
       ry="6.1882391" />
    <ellipse
       style="fill:#8b5cf6;fill-opacity:1;stroke-width:0.433819"
       id="path13-6-1-0"
       cx="147.36369"
       cy="98.601524"
       rx="7.0818324"
       ry="6.1882391" />
    <ellipse
       style="fill:#8b5cf6;fill-opacity:1;stroke-width:0.433819"
       id="path13-6-1-84"
       cx="25.508575"
       cy="121.43218"
       rx="5.2458014"
       ry="4.6123514" />
    <ellipse
       style="fill:#8b5cf6;fill-opacity:1;stroke-width:0.433819"
       id="path13-6-1-8"
       cx="98.322716"
       cy="157.99197"
       rx="5.2458014"
       ry="4.6123514" />
    <ellipse
       style="fill:#8b5cf6;fill-opacity:1;stroke-width:0.433819"
       id="path13-6-9-4"
       cx="180.49254"
       cy="116.78763"
       rx="7.0818324"
       ry="6.1882391" />
    <ellipse
       style="fill:#8b5cf6;fill-opacity:1;stroke-width:0.433819"
       id="path13-2"
       cx="149.0343"
       cy="62.722729"
       rx="7.0818324"
       ry="6.1882391" />
    <rect
       style="fill:#8b5cf6;fill-opacity:1;stroke-width:0.435613"
       id="rect15-6-1"
       width="20.567551"
       height="1.730281"
       x="184.26451"
       y="-37.187096"
       ry="8.4814087e-15"
       transform="matrix(0.74408659,0.66808319,-0.75780233,0.6524842,0,0)" />
    <rect
       style="fill:#8b5cf6;fill-opacity:1;stroke-width:0.435613"
       id="rect15-6-2"
       width="19.063496"
       height="1.7273592"
       x="194.88982"
       y="-9.9739475"
       ry="8.4814087e-15"
       transform="matrix(0.74408659,0.66808319,-0.75780233,0.6524842,0,0)" />
    <rect
       style="fill:#8b5cf6;fill-opacity:1;stroke-width:0.435613"
       id="rect15-6-2-5"
       width="25.590857"
       height="1.876927"
       x="166.46629"
       y="-27.503485"
       ry="8.4814087e-15"
       transform="matrix(0.74408659,0.66808319,-0.75780233,0.6524842,0,0)" />
    <rect
       style="fill:#8b5cf6;fill-opacity:1;stroke-width:0.43538"
       id="rect15-6-8"
       width="41.488178"
       height="1.9733698"
       x="3.7515769"
       y="184.84766"
       ry="8.271735e-15"
       transform="matrix(0.85672374,-0.51577556,0.61441912,0.78897981,0,0)" />
    <rect
       style="fill:#8b5cf6;fill-opacity:1;stroke-width:0.434911"
       id="rect15-6-8-2"
       width="29.450556"
       height="2.2140479"
       x="-56.896065"
       y="192.7722"
       ry="8.8031465e-15"
       transform="matrix(0.47849096,-0.87809248,0.92156561,0.38822266,0,0)" />
    <rect
       style="fill:#8b5cf6;fill-opacity:1;stroke-width:0.434237"
       id="rect15-6-8-8"
       width="23.556494"
       height="1.702657"
       x="-134.89728"
       y="-155.15526"
       ry="7.9809689e-15"
       transform="matrix(-0.97545239,0.22021042,-0.2803114,-0.95990912,0,0)" />
    <rect
       style="fill:#8b5cf6;fill-opacity:1;stroke-width:0.433819"
       id="rect15-0-2-2"
       width="24.54533"
       height="2.031333"
       x="127.97199"
       y="-145.81577"
       ry="8.9956568e-15"
       transform="matrix(-0.01190976,0.99992908,-0.99995761,-0.0092074,0,0)" />
    <rect
       style="fill:#8b5cf6;fill-opacity:1;stroke-width:0.433819"
       id="rect15-0-2-2-1"
       width="24.54533"
       height="2.031333"
       x="96.759033"
       y="-149.31593"
       ry="8.9956568e-15"
       transform="matrix(-0.01190976,0.99992908,-0.99995761,-0.0092074,0,0)" />
    <rect
       style="fill:#8b5cf6;fill-opacity:1;stroke-width:0.433819"
       id="rect15-0-2-6"
       width="54.038128"
       height="1.9113985"
       x="143.43735"
       y="-85.315392"
       ry="8.9956568e-15"
       transform="matrix(-0.01190976,0.99992908,-0.99995761,-0.0092074,0,0)" />
    <rect
       style="fill:#8b5cf6;fill-opacity:1;stroke-width:0.433861"
       id="rect15-0-2-6-9"
       width="54.08392"
       height="1.9101454"
       x="101.7661"
       y="-54.143539"
       ry="8.989758e-15"
       transform="matrix(0.08718017,0.99619256,-0.99771927,0.06750001,0,0)" />
    <rect
       style="fill:#8b5cf6;fill-opacity:1;stroke-width:0.434525"
       id="rect15-0-2-6-9-6"
       width="40.289772"
       height="2.3737497"
       x="98.31308"
       y="-8.8746719"
       ry="8.8824415e-15"
       transform="matrix(0.37180664,0.9283102,-0.95525682,0.29577762,0,0)" />
    <rect
       style="fill:#8b5cf6;fill-opacity:1;stroke-width:0.435198"
       id="rect15-0-2-6-9-6-1"
       width="36.214802"
       height="2.1927872"
       x="60.586735"
       y="-88.72551"
       ry="8.7272786e-15"
       transform="matrix(-0.5581152,0.82976348,-0.88722231,-0.46134215,0,0)" />
    <rect
       style="fill:#8b5cf6;fill-opacity:1;stroke-width:0.43538"
       id="rect15-0-2-6-9-6-1-2"
       width="53.935883"
       height="2.3189025"
       x="-18.900396"
       y="-99.648445"
       ry="8.271735e-15"
       transform="matrix(-0.85672374,0.51577556,-0.61441912,-0.78897981,0,0)" />
    <rect
       style="fill:#8b5cf6;fill-opacity:1;stroke-width:0.434055"
       id="rect15-0-2-6-9-6-1-2-4"
       width="36.082294"
       height="2.1721163"
       x="-197.78532"
       y="-40.338314"
       ry="7.9486808e-15"
       transform="matrix(-0.98673107,-0.16236313,0.20818344,-0.9780898,0,0)" />
    <rect
       style="fill:#8b5cf6;fill-opacity:1;stroke-width:0.434836"
       id="rect15-0-2-6-9-6-1-2-3"
       width="30.20122"
       height="2.0054843"
       x="-75.457527"
       y="-92.590439"
       ry="0"
       transform="matrix(-0.92884654,0.3704647,-0.45849571,-0.88869662,0,0)" />
    <rect
       style="fill:#8b5cf6;fill-opacity:1;stroke-width:0.433819"
       id="rect15-0-2-6-9-6-1-8"
       width="26.19277"
       height="1.8429617"
       x="65.516464"
       y="-44.96339"
       ry="8.9956568e-15"
       transform="matrix(-0.01190976,0.99992908,-0.99995761,-0.0092074,0,0)" />
    <rect
       style="fill:#8b5cf6;fill-opacity:1;stroke-width:0.433887"
       id="rect15-0-2-6-9-6-1-4"
       width="13.492267"
       height="1.8411798"
       x="76.380852"
       y="87.136292"
       ry="7.9205433e-15"
       transform="matrix(0.99630443,0.08589226,-0.11082992,0.99383939,0,0)" />
    <rect
       style="fill:#8b5cf6;fill-opacity:1;stroke-width:0.434301"
       id="rect15-0-2-6-9-6-1-4-4"
       width="12.001255"
       height="2.0738933"
       x="-58.610008"
       y="94.328743"
       ry="8.9216498e-15"
       transform="matrix(0.30265712,-0.95309951,0.97116432,0.23841112,0,0)" />
    <rect
       style="fill:#8b5cf6;fill-opacity:1;stroke-width:0.433819"
       id="rect15-0-2-6-8"
       width="21.776117"
       height="1.0289935"
       x="-75.002281"
       y="-164.6297"
       ry="7.9096233e-15"
       transform="matrix(-0.99995761,-0.0092074,0.01190976,-0.99992908,0,0)" />
    <rect
       style="fill:#8b5cf6;fill-opacity:1;stroke-width:0.435571"
       id="rect15-0-2-6-8-7"
       width="6.8771582"
       height="1.5182495"
       x="-161.92744"
       y="-66.976852"
       ry="8.3867341e-15"
       transform="matrix(-0.79861585,-0.60184111,0.6980327,-0.71606588,0,0)" />
    <rect
       style="fill:#8b5cf6;fill-opacity:1;stroke-width:0.435134"
       id="rect15-0-2-6-8-5"
       width="10.951205"
       height="1.9340001"
       x="172.27939"
       y="-22.040331"
       ry="8.7463394e-15"
       transform="matrix(0.53956539,0.8419437,-0.89605924,0.44393449,0,0)" />
    <rect
       style="fill:#8b5cf6;fill-opacity:1;stroke-width:0.434525"
       id="rect15-0-2-6-8-9"
       width="14.995274"
       height="1.1060741"
       x="-159.24254"
       y="-18.403053"
       ry="8.8824415e-15"
       transform="matrix(-0.37180664,-0.9283102,0.95525682,-0.29577762,0,0)" />
    <rect
       style="fill:#8b5cf6;fill-opacity:1;stroke-width:0.435545"
       id="rect15-0-2-6-8-9-2"
       width="15.606477"
       height="1.0677525"
       x="-156.02048"
       y="-64.064354"
       ry="8.5746975e-15"
       transform="matrix(-0.68266434,-0.7307321,0.81067967,-0.58548994,0,0)" />
    <rect
       style="fill:#8b5cf6;fill-opacity:1;stroke-width:0.435571"
       id="rect15-0-2-6-8-9-63"
       width="19.835896"
       height="1.2826492"
       x="-84.60006"
       y="132.20085"
       ry="8.5525848e-15"
       transform="matrix(0.6980327,-0.71606588,0.79861585,0.60184111,0,0)" />
    <rect
       style="fill:#8b5cf6;fill-opacity:1;stroke-width:0.435134"
       id="rect15-0-2-6-8-9-6"
       width="5.122303"
       height="1.1091282"
       x="-166.87975"
       y="-48.115936"
       ry="8.7463394e-15"
       transform="matrix(-0.53956539,-0.8419437,0.89605924,-0.44393449,0,0)" />
    <rect
       style="fill:#8b5cf6;fill-opacity:1;stroke-width:0.433887"
       id="rect15-0-2-6-8-9-4"
       width="45.083138"
       height="1.6363145"
       x="-86.519524"
       y="-121.59612"
       ry="0"
       transform="matrix(-0.99630443,-0.08589226,0.11082992,-0.99383939,0,0)" />
    <rect
       style="fill:#8b5cf6;fill-opacity:1;stroke-width:0.435571"
       id="rect15-0-2-6-8-1"
       width="5.9442663"
       height="1.1941105"
       x="-153.23112"
       y="-101.72897"
       ry="8.3867341e-15"
       transform="matrix(-0.79861585,-0.60184111,0.6980327,-0.71606588,0,0)" />
    <rect
       style="fill:#8b5cf6;fill-opacity:1;stroke-width:0.433819"
       id="rect15-0-2-1"
       width="24.54533"
       height="2.031333"
       x="159.03928"
       y="-101.01467"
       ry="8.9956568e-15"
       transform="matrix(-0.01190976,0.99992908,-0.99995761,-0.0092074,0,0)" />
    <rect
       style="fill:#8b5cf6;fill-opacity:1;stroke-width:0.433819"
       id="rect15-0-2-4"
       width="24.54533"
       height="2.031333"
       x="143.40321"
       y="-120.26061"
       ry="8.9956568e-15"
       transform="matrix(-0.01190976,0.99992908,-0.99995761,-0.0092074,0,0)" />
    <rect
       style="fill:#8b5cf6;fill-opacity:1;stroke-width:0.433819"
       id="rect15-0-2-4-3"
       width="53.832619"
       height="1.6825266"
       x="45.943863"
       y="-167.44885"
       ry="0"
       transform="matrix(-0.01190976,0.99992908,-0.99995761,-0.0092074,0,0)" />
    <rect
       style="fill:#8b5cf6;fill-opacity:1;stroke-width:0.433819"
       id="rect15-0-2-4-5"
       width="13.760644"
       height="1.5814929"
       x="158.48448"
       y="-130.70078"
       ry="8.9956568e-15"
       transform="matrix(-0.01190976,0.99992908,-0.99995761,-0.0092074,0,0)" />
    <rect
       style="fill:#8b5cf6;fill-opacity:1;stroke-width:0.435613"
       id="rect15-0-2-7"
       width="9.7896519"
       height="1.7795875"
       x="215.85263"
       y="42.720146"
       ry="8.4814087e-15"
       transform="matrix(0.74408659,0.66808319,-0.75780233,0.6524842,0,0)" />
    <rect
       style="fill:#8b5cf6;fill-opacity:1;stroke-width:0.435545"
       id="rect15-0-2-7-3"
       width="20.667048"
       height="1.9986159"
       x="3.554656"
       y="-227.98926"
       ry="8.3641234e-15"
       transform="matrix(-0.81067967,0.58548994,-0.68266434,-0.7307321,0,0)" />
    <rect
       style="fill:#8b5cf6;fill-opacity:1;stroke-width:0.433819"
       id="rect15-0-2-3"
       width="24.54533"
       height="2.031333"
       x="165.26961"
       y="-153.37064"
       ry="8.9956568e-15"
       transform="matrix(-0.01190976,0.99992908,-0.99995761,-0.0092074,0,0)" />
    <rect
       style="fill:#8b5cf6;fill-opacity:1;stroke-width:0.435094"
       id="rect15-2-1-0"
       width="12.702693"
       height="1.4243541"
       x="13.586482"
       y="-181.48703"
       ry="0"
       transform="matrix(-0.90103976,0.43373649,-0.52857845,-0.84888446,0,0)" />
    <rect
       style="fill:#8b5cf6;fill-opacity:1;stroke-width:0.433821"
       id="rect15-2-1-0-6"
       width="4.6404338"
       height="1.5804306"
       x="162.77335"
       y="-77.296806"
       ry="0"
       transform="matrix(-0.0258012,0.99966709,-0.999801,-0.01994892,0,0)" />
    <ellipse
       style="fill:#8b5cf6;fill-opacity:1;stroke-width:0.433819"
       id="path16"
       cx="43.513836"
       cy="64.828568"
       rx="3.5409162"
       ry="3.1133375" />
    <ellipse
       style="fill:#8b5cf6;fill-opacity:1;stroke-width:0.433819"
       id="path16-0"
       cx="48.054111"
       cy="37.763321"
       rx="3.5409162"
       ry="3.1133375" />
    <ellipse
       style="fill:#8b5cf6;fill-opacity:1;stroke-width:0.433819"
       id="path16-71"
       cx="79.05172"
       cy="31.661558"
       rx="3.5409162"
       ry="3.1133375" />
    <ellipse
       style="fill:#8b5cf6;fill-opacity:1;stroke-width:0.433819"
       id="path16-26"
       cx="102.18423"
       cy="21.898756"
       rx="3.5409162"
       ry="3.1133375" />
    <ellipse
       style="fill:#8b5cf6;fill-opacity:1;stroke-width:0.433819"
       id="path16-1"
       cx="118.83965"
       cy="21.898756"
       rx="3.5409162"
       ry="3.1133375" />
    <ellipse
       style="fill:#8b5cf6;fill-opacity:1;stroke-width:0.433819"
       id="path16-48"
       cx="157.23962"
       cy="30.848"
       rx="3.5409162"
       ry="3.1133375" />
    <ellipse
       style="fill:#8b5cf6;fill-opacity:1;stroke-width:0.433819"
       id="path16-90"
       cx="74.425194"
       cy="49.560055"
       rx="3.5409162"
       ry="3.1133375" />
    <ellipse
       style="fill:#8b5cf6;fill-opacity:1;stroke-width:0.433819"
       id="path16-77"
       cx="67.485435"
       cy="59.322868"
       rx="3.5409162"
       ry="3.1133375" />
    <ellipse
       style="fill:#8b5cf6;fill-opacity:1;stroke-width:0.433819"
       id="path16-4"
       cx="186.05951"
       cy="71.020874"
       rx="3.5409162"
       ry="3.1133375" />
    <ellipse
       style="fill:#8b5cf6;fill-opacity:1;stroke-width:0.433819"
       id="path16-4-1"
       cx="166.26135"
       cy="46.915951"
       rx="3.5409162"
       ry="3.1133375" />
    <ellipse
       style="fill:#8b5cf6;fill-opacity:1;stroke-width:0.433819"
       id="path16-30"
       cx="74.36908"
       cy="80.007507"
       rx="3.5409162"
       ry="3.1133375" />
    <ellipse
       style="fill:#8b5cf6;fill-opacity:1;stroke-width:0.433819"
       id="path16-99"
       cx="35.788067"
       cy="137.79004"
       rx="3.5409162"
       ry="3.1133375" />
    <ellipse
       style="fill:#8b5cf6;fill-opacity:1;stroke-width:0.433819"
       id="path16-99-66"
       cx="46.203514"
       cy="141.49318"
       rx="3.5409162"
       ry="3.1133375" />
    <ellipse
       style="fill:#8b5cf6;fill-opacity:1;stroke-width:0.433819"
       id="path16-99-4"
       cx="53.14328"
       cy="149.62885"
       rx="3.5409162"
       ry="3.1133375" />
    <ellipse
       style="fill:#8b5cf6;fill-opacity:1;stroke-width:0.433819"
       id="path16-99-4-6"
       cx="32.256241"
       cy="94.477249"
       rx="3.5409162"
       ry="3.1133375" />
    <ellipse
       style="fill:#8b5cf6;fill-opacity:1;stroke-width:0.433819"
       id="path16-99-6"
       cx="43.311947"
       cy="155.52725"
       rx="3.5409162"
       ry="3.1133375" />
    <ellipse
       style="fill:#8b5cf6;fill-opacity:1;stroke-width:0.433819"
       id="path16-18"
       cx="150.41554"
       cy="169.56128"
       rx="3.5409162"
       ry="3.1133375" />
    <ellipse
       style="fill:#8b5cf6;fill-opacity:1;stroke-width:0.433819"
       id="path16-9"
       cx="82.168396"
       cy="200.34998"
       rx="3.5409162"
       ry="3.1133375" />
    <ellipse
       style="fill:#8b5cf6;fill-opacity:1;stroke-width:0.433819"
       id="path16-9-8"
       cx="72.363739"
       cy="170.87584"
       rx="3.5409162"
       ry="3.1133375" />
    <ellipse
       style="fill:#8b5cf6;fill-opacity:1;stroke-width:0.433819"
       id="path16-9-8-8"
       cx="66.560135"
       cy="154.1035"
       rx="3.5409162"
       ry="3.1133375" />
    <ellipse
       style="fill:#8b5cf6;fill-opacity:1;stroke-width:0.433819"
       id="path16-9-8-8-8"
       cx="75.350487"
       cy="128.4761"
       rx="3.5409162"
       ry="3.1133375" />
    <ellipse
       style="fill:#8b5cf6;fill-opacity:1;stroke-width:0.433819"
       id="path16-9-8-8-8-1"
       cx="81.133621"
       cy="95.119835"
       rx="3.5409162"
       ry="3.1133375" />
    <ellipse
       style="fill:#8b5cf6;fill-opacity:1;stroke-width:0.433819"
       id="path16-9-8-4"
       cx="110.39627"
       cy="133.66263"
       rx="3.5409162"
       ry="3.1133375" />
    <ellipse
       style="fill:#8b5cf6;fill-opacity:1;stroke-width:0.433819"
       id="path16-8"
       cx="97.847168"
       cy="184.91191"
       rx="3.5409162"
       ry="3.1133375" />
    <ellipse
       style="fill:#8b5cf6;fill-opacity:1;stroke-width:0.433819"
       id="path16-3"
       cx="117.2039"
       cy="170.36137"
       rx="3.5409162"
       ry="3.1133375" />
    <ellipse
       style="fill:#8b5cf6;fill-opacity:1;stroke-width:0.433819"
       id="path16-2"
       cx="135.63057"
       cy="178.84679"
       rx="3.5409162"
       ry="3.1133375" />
    <ellipse
       style="fill:#8b5cf6;fill-opacity:1;stroke-width:0.433819"
       id="path16-7"
       cx="149.80435"
       cy="192.1727"
       rx="3.5409162"
       ry="3.1133375" />
    <ellipse
       style="fill:#8b5cf6;fill-opacity:1;stroke-width:0.433819"
       id="path16-0-0"
       cx="146.88132"
       cy="120.94215"
       rx="3.5409162"
       ry="3.1133375" />
    <ellipse
       style="fill:#8b5cf6;fill-opacity:1;stroke-width:0.433819"
       id="path16-0-0-6"
       cx="166.38042"
       cy="137.2075"
       rx="1.7486006"
       ry="1.5374506" />
    <ellipse
       style="fill:#8b5cf6;fill-opacity:1;stroke-width:0.433819"
       id="path16-0-9"
       cx="142.89748"
       cy="153.62689"
       rx="3.5409162"
       ry="3.1133375" />
    <rect
       style="fill:#8b5cf6;fill-opacity:1;stroke-width:0.434601"
       id="rect15-0-2-6-9-6-1-2-3-5"
       width="30.367815"
       height="1.9923054"
       x="-159.72842"
       y="-13.042759"
       ry="0"
       transform="matrix(-0.94949096,-0.31379439,0.3930846,-0.91950231,0,0)" />
    <rect
       style="fill:#8b5cf6;fill-opacity:1;stroke-width:0.434836"
       id="rect15-0-2-6-9-6-1-2-3-5-4"
       width="27.753992"
       height="2.1823189"
       x="-123.1448"
       y="115.92797"
       ry="0"
       transform="matrix(-0.45849571,-0.88869662,0.92884654,-0.3704647,0,0)" />
    <rect
       style="fill:#8b5cf6;fill-opacity:1;stroke-width:0.434601"
       id="rect15-0-2-6-9-6-1-2-3-5-4-1"
       width="30.367815"
       height="1.9923054"
       x="-157.96135"
       y="7.42769"
       ry="0"
       transform="matrix(-0.94949096,-0.31379439,0.3930846,-0.91950231,0,0)" />
    <rect
       style="fill:#8b5cf6;fill-opacity:1;stroke-width:0.433819"
       id="rect15-0-2-6-9-6-1-2-3-5-4-1-0"
       width="30.803177"
       height="1.9570966"
       x="-125.88822"
       y="-32.486919"
       ry="0"
       transform="matrix(-0.99995761,-0.0092074,0.01190976,-0.99992908,0,0)" />
    <rect
       style="fill:#8b5cf6;fill-opacity:1;stroke-width:0.435134"
       id="rect15-0-2-6-9-6-1-2-3-5-4-1-0-9"
       width="54.726311"
       height="2.1070478"
       x="-64.209961"
       y="-72.873833"
       ry="0"
       transform="matrix(-0.89605924,0.44393449,-0.53956539,-0.8419437,0,0)" />
    <rect
       style="fill:#8b5cf6;fill-opacity:1;stroke-width:0.435198"
       id="rect15-0-2-6-9-6-1-2-3-5-4-1-0-2"
       width="11.705458"
       height="2.1898048"
       x="26.395077"
       y="-72.705528"
       ry="0"
       transform="matrix(-0.5581152,0.82976348,-0.88722231,-0.46134215,0,0)" />
    <rect
       style="fill:#8b5cf6;fill-opacity:1;stroke-width:0.435198"
       id="rect15-0-2-6-9-6-1-2-3-5-4-1-0-2-1"
       width="13.298887"
       height="1.9696373"
       x="-28.577713"
       y="-98.717003"
       ry="0"
       transform="matrix(-0.5581152,0.82976348,-0.88722231,-0.46134215,0,0)" />
    <rect
       style="fill:#8b5cf6;fill-opacity:1;stroke-width:0.435134"
       id="rect15-0-2-6-9-6-1-2-3-5-4-1-0-2-2"
       width="11.676465"
       height="2.1945872"
       x="73.999573"
       y="-90.097641"
       ry="0"
       transform="matrix(0.53956539,0.8419437,-0.89605924,0.44393449,0,0)" />
    <rect
       style="fill:#8b5cf6;fill-opacity:1;stroke-width:0.435198"
       id="rect15-0-2-6-9-6-1-2-3-5-4-1-0-2-0"
       width="11.705458"
       height="2.1898048"
       x="8.8546915"
       y="-91.475304"
       ry="0"
       transform="matrix(-0.5581152,0.82976348,-0.88722231,-0.46134215,0,0)" />
    <rect
       style="fill:#8b5cf6;fill-opacity:1;stroke-width:0.435198"
       id="rect15-0-2-6-9-6-1-2-3-5-4-1-0-2-0-0"
       width="12.450871"
       height="2.0587049"
       x="-101.4306"
       y="-22.75712"
       ry="0"
       transform="matrix(-0.88722231,-0.46134215,0.5581152,-0.82976348,0,0)" />
    <rect
       style="fill:#8b5cf6;fill-opacity:1;stroke-width:0.433819"
       id="rect15-0-2-6-9-6-1-2-3-5-4-1-0-2-7"
       width="17.797441"
       height="2.7000804"
       x="37.937321"
       y="-50.227314"
       ry="0"
       transform="matrix(-0.01190976,0.99992908,-0.99995761,-0.0092074,0,0)" />
    <rect
       style="fill:#8b5cf6;fill-opacity:1;stroke-width:0.435545"
       id="rect15-0-2-6-9-6-1-2-3-5-4-1-0-2-26"
       width="38.676918"
       height="2.3929293"
       x="-36.632053"
       y="-74.203636"
       ry="0"
       transform="matrix(-0.81067967,0.58548994,-0.68266434,-0.7307321,0,0)" />
    <rect
       style="fill:#8b5cf6;fill-opacity:1;stroke-width:0.435198"
       id="rect15-0-2-6-9-6-1-2-3-5-4-1-0-2-5"
       width="11.705458"
       height="2.1898048"
       x="-45.219891"
       y="-151.50896"
       ry="0"
       transform="matrix(-0.5581152,0.82976348,-0.88722231,-0.46134215,0,0)" />
  </g>
</svg>
