<svg width="210" height="297" viewBox="0 0 210 297" fill="none" xmlns="http://www.w3.org/2000/svg">
<style>
@keyframes kf_eFJNjyDGqu02_opacity_0 {
  0% {
    animation-timing-function: cubic-bezier(0.5, 0, 0.5, 1);
    opacity: 1;
  }
  99.5% {
    animation-timing-function: cubic-bezier(0.5, 0, 0.5, 1);
    opacity: 0.2;
  }
  100% {
    opacity: 0;
  }
}
#eFJNjyDGqu02 {
  animation: kf_eFJNjyDGqu02_opacity_0 2s linear infinite;
}
</style>
<g id="logo_datamaind_animation_1" clip-path="url(#clip0_2005_106)">
<g id="eFJNjyDGqu02" transform="translate(0 39)">
<path id="Vector" transform="translate(117.485 51.3766)" d="M22.3284 0H0V76.5758H22.3284V0Z" fill="#8B5CF6"/>
<path id="Vector_2" transform="translate(76.3366 95.2755)" d="M16.7673 0H0V31.5801H16.7673V0Z" fill="#8B5CF6"/>
<path id="Vector_3" transform="translate(94.9032 67.0873)" d="M20.0828 0H0V60.4516H20.0828V0Z" fill="#8B5CF6"/>
<path id="Vector_4" transform="translate(109.669 31.655)" d="M8.68738 14.6589C13.4853 14.6589 17.3748 11.3774 17.3748 7.32944C17.3748 3.2815 13.4853 0 8.68738 0C3.88947 0 0 3.2815 0 7.32944C0 11.3774 3.88947 14.6589 8.68738 14.6589Z" fill="#8B5CF6"/>
<path id="Vector_5" transform="translate(66.0112 49.2646)" d="M8.68738 14.6589C13.4853 14.6589 17.3748 11.3774 17.3748 7.32944C17.3748 3.2815 13.4853 0 8.68738 0C3.88947 0 0 3.2815 0 7.32944C0 11.3774 3.88947 14.6589 8.68738 14.6589Z" fill="#8B5CF6"/>
<path id="Vector_6" transform="translate(42.1275 82.3583)" d="M8.68738 14.6589C13.4853 14.6589 17.3748 11.3774 17.3748 7.32944C17.3748 3.2815 13.4853 0 8.68738 0C3.88947 0 0 3.2815 0 7.32944C0 11.3774 3.88947 14.6589 8.68738 14.6589Z" fill="#8B5CF6"/>
<path id="Vector_7" transform="translate(147.125 87.3114)" d="M8.68738 14.6589C13.4853 14.6589 17.3748 11.3774 17.3748 7.32944C17.3748 3.2815 13.4853 0 8.68738 0C3.88947 0 0 3.2815 0 7.32944C0 11.3774 3.88947 14.6589 8.68738 14.6589Z" fill="#8B5CF6"/>
<path id="Vector_8" transform="translate(0 116.254)" d="M6.4351 10.9259C9.9891 10.9259 12.8702 8.48004 12.8702 5.46294C12.8702 2.44584 9.9891 0 6.4351 0C2.88109 0 0 2.44584 0 5.46294C0 8.48004 2.88109 10.9259 6.4351 10.9259Z" fill="#8B5CF6"/>
<path id="Vector_9" transform="translate(89.259 159.608)" d="M6.4351 10.9259C9.9891 10.9259 12.8702 8.48004 12.8702 5.46294C12.8702 2.44584 9.9891 0 6.4351 0C2.88109 0 0 2.44584 0 5.46294C0 8.48004 2.88109 10.9259 6.4351 10.9259Z" fill="#8B5CF6"/>
<path id="Vector_10" transform="translate(187.736 108.877)" d="M8.68738 14.6589C13.4853 14.6589 17.3748 11.3774 17.3748 7.32944C17.3748 3.2815 13.4853 0 8.68738 0C3.88947 0 0 3.2815 0 7.32944C0 11.3774 3.88947 14.6589 8.68738 14.6589Z" fill="#8B5CF6"/>
<path id="Vector_11" transform="translate(149.173 44.7647)" d="M8.68738 14.6589C13.4853 14.6589 17.3748 11.3774 17.3748 7.32944C17.3748 3.2815 13.4853 0 8.68738 0C3.88947 0 0 3.2815 0 7.32944C0 11.3774 3.88947 14.6589 8.68738 14.6589Z" fill="#8B5CF6"/>
<path id="Vector_12" transform="matrix(0.754982 0.655747 -0.768375 0.64 177.78 94.9322)" d="M24.846 0H0V2.09172H24.846V0Z" fill="#8B5CF6"/>
<path id="Vector_13" transform="matrix(0.754982 0.655747 -0.768375 0.64 162.192 124.406)" d="M23.029 0H0V2.08818H23.029V0Z" fill="#8B5CF6"/>
<path id="Vector_14" transform="matrix(0.754982 0.655747 -0.768375 0.64 152.55 88.3249)" d="M30.9142 0H0V2.26899H30.9142V0Z" fill="#8B5CF6"/>
<path id="Vector_15" transform="matrix(0.864134 -0.503262 0.627076 0.778958 118.325 148.374)" d="M50.4332 0H0V2.36914H50.4332V0Z" fill="#8B5CF6"/>
<path id="Vector_16" transform="matrix(0.490791 -0.871277 0.926057 0.377385 159.563 125.716)" d="M35.1708 0H0V2.7021H35.1708V0Z" fill="#8B5CF6"/>
<path id="Vector_17" transform="matrix(-0.976974 0.213357 -0.288988 -0.957332 189.78 119.111)" d="M28.8496 0H0V2.0224H28.8496V0Z" fill="#8B5CF6"/>
<path id="Vector_18" transform="matrix(-0.0123116 0.999924 -0.999961 -0.00890689 152.033 131.06)" d="M29.072 0H0V2.49186H29.072V0Z" fill="#8B5CF6"/>
<path id="Vector_19" transform="matrix(-0.0123116 0.999924 -0.999961 -0.00890689 156.779 94.087)" d="M29.072 0H0V2.49186H29.072V0Z" fill="#8B5CF6"/>
<path id="Vector_20" transform="matrix(-0.0123116 0.999924 -0.999961 -0.00890689 77.6459 148.738)" d="M64.0039 0H0V2.34473H64.0039V0Z" fill="#8B5CF6"/>
<path id="Vector_21" transform="matrix(0.0900972 0.995933 -0.997866 0.0653075 52.2569 93.6091)" d="M64.0756 0H0V2.34284H64.0756V0Z" fill="#8B5CF6"/>
<path id="Vector_22" transform="matrix(0.382538 0.92394 -0.957951 0.286934 30.3621 82.837)" d="M47.959 0H0V2.90327H47.959V0Z" fill="#8B5CF6"/>
<path id="Vector_23" transform="matrix(-0.570874 0.821038 -0.893346 -0.44937 30.2075 85.8792)" d="M43.3763 0H0V2.67045H43.3763V0Z" fill="#8B5CF6"/>
<path id="Vector_24" transform="matrix(-0.864134 0.503262 -0.627076 -0.778958 70.064 59.3953)" d="M65.5647 0H0V2.78398H65.5647V0Z" fill="#8B5CF6"/>
<path id="Vector_25" transform="matrix(-0.987567 -0.157198 0.214886 -0.976639 204.104 62.5916)" d="M44.223 0H0V2.57674H44.223V0Z" fill="#8B5CF6"/>
<path id="Vector_26" transform="matrix(-0.932965 0.359966 -0.47058 -0.882357 113.119 42.151)" d="M36.8755 0H0V2.39341H36.8755V0Z" fill="#8B5CF6"/>
<path id="Vector_27" transform="matrix(-0.0123116 0.999924 -0.999961 -0.00890689 29.3203 55.9013)" d="M31.0233 0H0V2.26078H31.0233V0Z" fill="#8B5CF6"/>
<path id="Vector_28" transform="matrix(0.996541 0.0831096 -0.11452 0.993421 56.6077 88.197)" d="M16.547 0H0V2.1817H16.547V0Z" fill="#8B5CF6"/>
<path id="Vector_29" transform="matrix(0.311888 -0.950119 0.972941 0.231054 65.7142 70.6347)" d="M14.2617 0H0V2.53917H14.2617V0Z" fill="#8B5CF6"/>
<path id="Vector_30" transform="matrix(-0.999961 -0.00890689 0.0123116 -0.999924 64.6949 173.755)" d="M26.713 0H0V1.21876H26.713V0Z" fill="#8B5CF6"/>
<path id="Vector_31" transform="matrix(-0.808065 -0.589092 0.709812 -0.704391 76.374 150.163)" d="M8.33211 0H0V1.82981H8.33211V0Z" fill="#8B5CF6"/>
<path id="Vector_32" transform="matrix(0.552278 0.83366 -0.901782 0.432192 113.321 138.127)" d="M13.1073 0H0V2.35657H13.1073V0Z" fill="#8B5CF6"/>
<path id="Vector_33" transform="matrix(-0.382538 -0.92394 0.957951 -0.286934 26.1902 159.478)" d="M17.8496 0H0V1.35281H17.8496V0Z" fill="#8B5CF6"/>
<path id="Vector_34" transform="matrix(-0.694674 -0.719324 0.819749 -0.572722 42.0599 157.401)" d="M18.795 0H0V1.29452H18.795V0Z" fill="#8B5CF6"/>
<path id="Vector_35" transform="matrix(0.709812 -0.704391 0.808065 0.589092 32.1925 143.912)" d="M23.9065 0H0V1.55401H23.9065V0Z" fill="#8B5CF6"/>
<path id="Vector_36" transform="matrix(-0.552278 -0.83366 0.901782 -0.432192 32.6875 169.669)" d="M6.13081 0H0V1.35147H6.13081V0Z" fill="#8B5CF6"/>
<path id="Vector_37" transform="matrix(-0.996541 -0.0831096 0.11452 -0.993421 64.3086 129.842)" d="M55.2903 0H0V1.93894H55.2903V0Z" fill="#8B5CF6"/>
<path id="Vector_38" transform="matrix(-0.808065 -0.589092 0.709812 -0.704391 38.1235 173.466)" d="M7.20186 0H0V1.43915H7.20186V0Z" fill="#8B5CF6"/>
<path id="Vector_39" transform="matrix(-0.0123116 0.999924 -0.999961 -0.00890689 96.6625 167.409)" d="M29.072 0H0V2.49186H29.072V0Z" fill="#8B5CF6"/>
<path id="Vector_40" transform="matrix(-0.0123116 0.999924 -0.999961 -0.00890689 120.483 149.079)" d="M29.072 0H0V2.49186H29.072V0Z" fill="#8B5CF6"/>
<path id="Vector_41" transform="matrix(-0.0123116 0.999924 -0.999961 -0.00890689 179.748 34.0302)" d="M63.7605 0H0V2.06397H63.7605V0Z" fill="#8B5CF6"/>
<path id="Vector_42" transform="matrix(-0.0123116 0.999924 -0.999961 -0.00890689 133.059 167.075)" d="M16.2984 0H0V1.94004H16.2984V0Z" fill="#8B5CF6"/>
<path id="Vector_43" transform="matrix(0.754982 0.655747 -0.768375 0.64 132.363 181.786)" d="M11.8261 0H0V2.15132H11.8261V0Z" fill="#8B5CF6"/>
<path id="Vector_44" transform="matrix(-0.819749 0.572722 -0.694674 -0.719324 162.42 177.753)" d="M25.0563 0H0V2.40696H25.0563V0Z" fill="#8B5CF6"/>
<path id="Vector_45" transform="matrix(-0.0123116 0.999924 -0.999961 -0.00890689 160.749 175.368)" d="M29.072 0H0V2.49186H29.072V0Z" fill="#8B5CF6"/>
<path id="Vector_46" transform="matrix(-0.90653 0.422141 -0.541245 -0.840864 77.7499 167.405)" d="M15.4829 0H0V1.70407H15.4829V0Z" fill="#8B5CF6"/>
<path id="Vector_47" transform="matrix(-0.0266707 0.999644 -0.999814 -0.019298 64.748 172.512)" d="M5.49633 0H0V1.93871H5.49633V0Z" fill="#8B5CF6"/>
<path id="Vector_48" transform="translate(24.1616 50.9082)" d="M4.34369 7.37496C6.74264 7.37496 8.68738 5.72402 8.68738 3.68748C8.68738 1.65094 6.74264 0 4.34369 0C1.94474 0 0 1.65094 0 3.68748C0 5.72402 1.94474 7.37496 4.34369 7.37496Z" fill="#8B5CF6"/>
<path id="Vector_49" transform="translate(29.7273 18.813)" d="M4.34369 7.37496C6.74264 7.37496 8.68738 5.72402 8.68738 3.68748C8.68738 1.65094 6.74264 0 4.34369 0C1.94474 0 0 1.65094 0 3.68748C0 5.72402 1.94474 7.37496 4.34369 7.37496Z" fill="#8B5CF6"/>
<path id="Vector_50" transform="translate(67.7256 11.5772)" d="M4.34369 7.37496C6.74264 7.37496 8.68738 5.72402 8.68738 3.68748C8.68738 1.65094 6.74264 0 4.34369 0C1.94474 0 0 1.65094 0 3.68748C0 5.72402 1.94474 7.37496 4.34369 7.37496Z" fill="#8B5CF6"/>
<path id="Vector_51" transform="translate(96.0821)" d="M4.34369 7.37496C6.74264 7.37496 8.68738 5.72402 8.68738 3.68748C8.68738 1.65094 6.74264 0 4.34369 0C1.94474 0 0 1.65094 0 3.68748C0 5.72402 1.94474 7.37496 4.34369 7.37496Z" fill="#8B5CF6"/>
<path id="Vector_52" transform="translate(116.499)" d="M4.34369 7.37496C6.74264 7.37496 8.68738 5.72402 8.68738 3.68748C8.68738 1.65094 6.74264 0 4.34369 0C1.94474 0 0 1.65094 0 3.68748C0 5.72402 1.94474 7.37496 4.34369 7.37496Z" fill="#8B5CF6"/>
<path id="Vector_53" transform="translate(163.572 10.6124)" d="M4.34369 7.37496C6.74264 7.37496 8.68738 5.72402 8.68738 3.68748C8.68738 1.65094 6.74264 0 4.34369 0C1.94474 0 0 1.65094 0 3.68748C0 5.72402 1.94474 7.37496 4.34369 7.37496Z" fill="#8B5CF6"/>
<path id="Vector_54" transform="translate(62.0542 32.8021)" d="M4.34369 7.37496C6.74264 7.37496 8.68738 5.72402 8.68738 3.68748C8.68738 1.65094 6.74264 0 4.34369 0C1.94474 0 0 1.65094 0 3.68748C0 5.72402 1.94474 7.37496 4.34369 7.37496Z" fill="#8B5CF6"/>
<path id="Vector_55" transform="translate(53.5472 44.3794)" d="M4.34369 7.37496C6.74264 7.37496 8.68738 5.72402 8.68738 3.68748C8.68738 1.65094 6.74264 0 4.34369 0C1.94474 0 0 1.65094 0 3.68748C0 5.72402 1.94474 7.37496 4.34369 7.37496Z" fill="#8B5CF6"/>
<path id="Vector_56" transform="translate(198.901 58.2513)" d="M4.34369 7.37496C6.74264 7.37496 8.68738 5.72402 8.68738 3.68748C8.68738 1.65094 6.74264 0 4.34369 0C1.94474 0 0 1.65094 0 3.68748C0 5.72402 1.94474 7.37496 4.34369 7.37496Z" fill="#8B5CF6"/>
<path id="Vector_57" transform="translate(174.631 29.6665)" d="M4.34369 7.37496C6.74264 7.37496 8.68738 5.72402 8.68738 3.68748C8.68738 1.65094 6.74264 0 4.34369 0C1.94474 0 0 1.65094 0 3.68748C0 5.72402 1.94474 7.37496 4.34369 7.37496Z" fill="#8B5CF6"/>
<path id="Vector_58" transform="translate(61.9855 68.9081)" d="M4.34369 7.37496C6.74264 7.37496 8.68738 5.72402 8.68738 3.68748C8.68738 1.65094 6.74264 0 4.34369 0C1.94474 0 0 1.65094 0 3.68748C0 5.72402 1.94474 7.37496 4.34369 7.37496Z" fill="#8B5CF6"/>
<path id="Vector_59" transform="translate(14.691 137.43)" d="M4.34369 7.37496C6.74264 7.37496 8.68738 5.72402 8.68738 3.68748C8.68738 1.65094 6.74264 0 4.34369 0C1.94474 0 0 1.65094 0 3.68748C0 5.72402 1.94474 7.37496 4.34369 7.37496Z" fill="#8B5CF6"/>
<path id="Vector_60" transform="translate(27.4587 141.821)" d="M4.34369 7.37496C6.74264 7.37496 8.68738 5.72402 8.68738 3.68748C8.68738 1.65094 6.74264 0 4.34369 0C1.94474 0 0 1.65094 0 3.68748C0 5.72402 1.94474 7.37496 4.34369 7.37496Z" fill="#8B5CF6"/>
<path id="Vector_61" transform="translate(35.9658 151.468)" d="M4.34369 7.37496C6.74264 7.37496 8.68738 5.72402 8.68738 3.68748C8.68738 1.65094 6.74264 0 4.34369 0C1.94474 0 0 1.65094 0 3.68748C0 5.72402 1.94474 7.37496 4.34369 7.37496Z" fill="#8B5CF6"/>
<path id="Vector_62" transform="translate(10.3616 86.0671)" d="M4.34369 7.37496C6.74264 7.37496 8.68738 5.72402 8.68738 3.68748C8.68738 1.65094 6.74264 0 4.34369 0C1.94474 0 0 1.65094 0 3.68748C0 5.72402 1.94474 7.37496 4.34369 7.37496Z" fill="#8B5CF6"/>
<path id="Vector_63" transform="translate(23.9142 158.463)" d="M4.34369 7.37496C6.74264 7.37496 8.68738 5.72402 8.68738 3.68748C8.68738 1.65094 6.74264 0 4.34369 0C1.94474 0 0 1.65094 0 3.68748C0 5.72402 1.94474 7.37496 4.34369 7.37496Z" fill="#8B5CF6"/>
<path id="Vector_64" transform="translate(155.207 175.105)" d="M4.34369 7.37496C6.74264 7.37496 8.68738 5.72402 8.68738 3.68748C8.68738 1.65094 6.74264 0 4.34369 0C1.94474 0 0 1.65094 0 3.68748C0 5.72402 1.94474 7.37496 4.34369 7.37496Z" fill="#8B5CF6"/>
<path id="Vector_65" transform="translate(71.5462 211.616)" d="M4.34369 7.37496C6.74264 7.37496 8.68738 5.72402 8.68738 3.68748C8.68738 1.65094 6.74264 0 4.34369 0C1.94474 0 0 1.65094 0 3.68748C0 5.72402 1.94474 7.37496 4.34369 7.37496Z" fill="#8B5CF6"/>
<path id="Vector_66" transform="translate(59.5272 176.664)" d="M4.34369 7.37496C6.74264 7.37496 8.68738 5.72402 8.68738 3.68748C8.68738 1.65094 6.74264 0 4.34369 0C1.94474 0 0 1.65094 0 3.68748C0 5.72402 1.94474 7.37496 4.34369 7.37496Z" fill="#8B5CF6"/>
<path id="Vector_67" transform="translate(52.4129 156.775)" d="M4.34369 7.37496C6.74264 7.37496 8.68738 5.72402 8.68738 3.68748C8.68738 1.65094 6.74264 0 4.34369 0C1.94474 0 0 1.65094 0 3.68748C0 5.72402 1.94474 7.37496 4.34369 7.37496Z" fill="#8B5CF6"/>
<path id="Vector_68" transform="translate(63.1885 126.384)" d="M4.34369 7.37496C6.74264 7.37496 8.68738 5.72402 8.68738 3.68748C8.68738 1.65094 6.74264 0 4.34369 0C1.94474 0 0 1.65094 0 3.68748C0 5.72402 1.94474 7.37496 4.34369 7.37496Z" fill="#8B5CF6"/>
<path id="Vector_69" transform="translate(70.2777 86.8291)" d="M4.34369 7.37496C6.74264 7.37496 8.68738 5.72402 8.68738 3.68748C8.68738 1.65094 6.74264 0 4.34369 0C1.94474 0 0 1.65094 0 3.68748C0 5.72402 1.94474 7.37496 4.34369 7.37496Z" fill="#8B5CF6"/>
<path id="Vector_70" transform="translate(106.149 132.535)" d="M4.34369 7.37496C6.74264 7.37496 8.68738 5.72402 8.68738 3.68748C8.68738 1.65094 6.74264 0 4.34369 0C1.94474 0 0 1.65094 0 3.68748C0 5.72402 1.94474 7.37496 4.34369 7.37496Z" fill="#8B5CF6"/>
<path id="Vector_71" transform="translate(90.766 193.309)" d="M4.34369 7.37496C6.74264 7.37496 8.68738 5.72402 8.68738 3.68748C8.68738 1.65094 6.74264 0 4.34369 0C1.94474 0 0 1.65094 0 3.68748C0 5.72402 1.94474 7.37496 4.34369 7.37496Z" fill="#8B5CF6"/>
<path id="Vector_72" transform="translate(114.495 176.054)" d="M4.34369 7.37496C6.74264 7.37496 8.68738 5.72402 8.68738 3.68748C8.68738 1.65094 6.74264 0 4.34369 0C1.94474 0 0 1.65094 0 3.68748C0 5.72402 1.94474 7.37496 4.34369 7.37496Z" fill="#8B5CF6"/>
<path id="Vector_73" transform="translate(137.083 186.116)" d="M4.34369 7.37496C6.74264 7.37496 8.68738 5.72402 8.68738 3.68748C8.68738 1.65094 6.74264 0 4.34369 0C1.94474 0 0 1.65094 0 3.68748C0 5.72402 1.94474 7.37496 4.34369 7.37496Z" fill="#8B5CF6"/>
<path id="Vector_74" transform="translate(154.457 201.92)" d="M4.34369 7.37496C6.74264 7.37496 8.68738 5.72402 8.68738 3.68748C8.68738 1.65094 6.74264 0 4.34369 0C1.94474 0 0 1.65094 0 3.68748C0 5.72402 1.94474 7.37496 4.34369 7.37496Z" fill="#8B5CF6"/>
<path id="Vector_75" transform="translate(150.875 117.45)" d="M4.34369 7.37496C6.74264 7.37496 8.68738 5.72402 8.68738 3.68748C8.68738 1.65094 6.74264 0 4.34369 0C1.94474 0 0 1.65094 0 3.68748C0 5.72402 1.94474 7.37496 4.34369 7.37496Z" fill="#8B5CF6"/>
<path id="Vector_76" transform="translate(176.974 138.608)" d="M2.14504 3.64196C3.32971 3.64196 4.29007 2.82668 4.29007 1.82098C4.29007 0.815281 3.32971 0 2.14504 0C0.960365 0 0 0.815281 0 1.82098C0 2.82668 0.960365 3.64196 2.14504 3.64196Z" fill="#8B5CF6"/>
<path id="Vector_77" transform="translate(145.99 156.21)" d="M4.34369 7.37496C6.74264 7.37496 8.68738 5.72402 8.68738 3.68748C8.68738 1.65094 6.74264 0 4.34369 0C1.94474 0 0 1.65094 0 3.68748C0 5.72402 1.94474 7.37496 4.34369 7.37496Z" fill="#8B5CF6"/>
<path id="Vector_78" transform="matrix(-0.952507 -0.304519 0.404207 -0.914667 154.789 51.3819)" d="M37.1281 0H0V2.37293H37.1281V0Z" fill="#8B5CF6"/>
<path id="Vector_79" transform="matrix(-0.47058 -0.882357 0.932965 -0.359966 176.372 56.5717)" d="M33.1225 0H0V2.6646H33.1225V0Z" fill="#8B5CF6"/>
<path id="Vector_80" transform="matrix(-0.952507 -0.304519 0.404207 -0.914667 162.596 28.4035)" d="M37.1281 0H0V2.37293H37.1281V0Z" fill="#8B5CF6"/>
<path id="Vector_81" transform="matrix(-0.999961 -0.00890689 0.0123116 -0.999924 129 17.6197)" d="M37.7866 0H0V2.31803H37.7866V0Z" fill="#8B5CF6"/>
<path id="Vector_82" transform="matrix(-0.901782 0.432192 -0.552278 -0.83366 93.8917 16.6792)" d="M66.6836 0H0V2.52189H66.6836V0Z" fill="#8B5CF6"/>
<path id="Vector_83" transform="matrix(-0.570874 0.821038 -0.893346 -0.44937 36.1769 43.4713)" d="M14.0202 0H0V2.66681H14.0202V0Z" fill="#8B5CF6"/>
<path id="Vector_84" transform="matrix(-0.570874 0.821038 -0.893346 -0.44937 102.077 3.60994)" d="M15.9288 0H0V2.3987H15.9288V0Z" fill="#8B5CF6"/>
<path id="Vector_85" transform="matrix(0.552278 0.83366 -0.901782 0.432192 123.072 4.17494)" d="M13.9754 0H0V2.67409H13.9754V0Z" fill="#8B5CF6"/>
<path id="Vector_86" transform="matrix(-0.570874 0.821038 -0.893346 -0.44937 68.5913 36.4806)" d="M14.0202 0H0V2.66681H14.0202V0Z" fill="#8B5CF6"/>
<path id="Vector_87" transform="matrix(-0.893346 -0.44937 0.570874 -0.821038 69.9072 55.6067)" d="M15.1631 0H0V2.46582H15.1631V0Z" fill="#8B5CF6"/>
<path id="Vector_88" transform="matrix(-0.0123116 0.999924 -0.999961 -0.00890689 36.1754 23.2565)" d="M21.0797 0H0V3.31221H21.0797V0Z" fill="#8B5CF6"/>
<path id="Vector_89" transform="matrix(-0.819749 0.572722 -0.694674 -0.719324 73.6614 16.5899)" d="M46.8912 0H0V2.88184H46.8912V0Z" fill="#8B5CF6"/>
<path id="Vector_90" transform="matrix(-0.570874 0.821038 -0.893346 -0.44937 170.879 16.1158)" d="M14.0202 0H0V2.66681H14.0202V0Z" fill="#8B5CF6"/>
</g>
</g>
<defs>
<clipPath id="clip0_2005_106">
<rect width="210" height="297" fill="white"/>
</clipPath>
</defs>
</svg>
