<svg width="210" height="297" viewBox="0 0 210 297" fill="none" xmlns="http://www.w3.org/2000/svg">
<style>
@keyframes kf_eFJNjyDGqu02_opacity_0 {
  0% {
    animation-timing-function: cubic-bezier(0.5, 0, 0.5, 1);
    opacity: 1;
  }
  28.54% {
    animation-timing-function: linear;
    opacity: 0;
  }
  100% {
    opacity: 0;
  }
}
#eFJNjyDGqu02 {
  animation: kf_eFJNjyDGqu02_opacity_0 3.5s linear infinite;
}
</style>
<g id="logo_datamaind_animation_1" clip-path="url(#clip0_2005_106)">
<g id="eFJNjyDGqu02" transform="translate(2.27111 0.26459)">
<path id="Vector" transform="translate(116.804 50.2766)" d="M22.1833 0H0V75.027H22.1833V0Z" fill="#8B5CF6"/>
<path id="Vector_2" transform="translate(75.8943 93.2357)" d="M16.6584 0H0V30.9414H16.6584V0Z" fill="#8B5CF6"/>
<path id="Vector_3" transform="translate(94.3534 65.651)" d="M19.9523 0H0V59.2289H19.9523V0Z" fill="#8B5CF6"/>
<path id="Vector_4" transform="translate(109.034 30.9773)" d="M8.63094 14.3624C13.3977 14.3624 17.2619 11.1473 17.2619 7.1812C17.2619 3.21513 13.3977 0 8.63094 0C3.8642 0 0 3.21513 0 7.1812C0 11.1473 3.8642 14.3624 8.63094 14.3624Z" fill="#8B5CF6"/>
<path id="Vector_5" transform="translate(65.6287 48.2099)" d="M8.63094 14.3624C13.3977 14.3624 17.2619 11.1473 17.2619 7.1812C17.2619 3.21513 13.3977 0 8.63094 0C3.8642 0 0 3.21513 0 7.1812C0 11.1473 3.8642 14.3624 8.63094 14.3624Z" fill="#8B5CF6"/>
<path id="Vector_6" transform="translate(41.8834 80.595)" d="M8.63094 14.3624C13.3977 14.3624 17.2619 11.1473 17.2619 7.1812C17.2619 3.21513 13.3977 0 8.63094 0C3.8642 0 0 3.21513 0 7.1812C0 11.1473 3.8642 14.3624 8.63094 14.3624Z" fill="#8B5CF6"/>
<path id="Vector_7" transform="translate(146.273 85.4421)" d="M8.63094 14.3624C13.3977 14.3624 17.2619 11.1473 17.2619 7.1812C17.2619 3.21513 13.3977 0 8.63094 0C3.8642 0 0 3.21513 0 7.1812C0 11.1473 3.8642 14.3624 8.63094 14.3624Z" fill="#8B5CF6"/>
<path id="Vector_8" transform="translate(0 113.765)" d="M6.39329 10.7049C9.92421 10.7049 12.7866 8.30853 12.7866 5.35245C12.7866 2.39637 9.92421 0 6.39329 0C2.86237 0 0 2.39637 0 5.35245C0 8.30853 2.86237 10.7049 6.39329 10.7049Z" fill="#8B5CF6"/>
<path id="Vector_9" transform="translate(88.7418 156.191)" d="M6.39329 10.7049C9.92421 10.7049 12.7866 8.30853 12.7866 5.35245C12.7866 2.39637 9.92421 0 6.39329 0C2.86237 0 0 2.39637 0 5.35245C0 8.30853 2.86237 10.7049 6.39329 10.7049Z" fill="#8B5CF6"/>
<path id="Vector_10" transform="translate(186.648 106.546)" d="M8.63094 14.3624C13.3977 14.3624 17.2619 11.1473 17.2619 7.1812C17.2619 3.21513 13.3977 0 8.63094 0C3.8642 0 0 3.21513 0 7.1812C0 11.1473 3.8642 14.3624 8.63094 14.3624Z" fill="#8B5CF6"/>
<path id="Vector_11" transform="translate(148.309 43.8063)" d="M8.63094 14.3624C13.3977 14.3624 17.2619 11.1473 17.2619 7.1812C17.2619 3.21513 13.3977 0 8.63094 0C3.8642 0 0 3.21513 0 7.1812C0 11.1473 3.8642 14.3624 8.63094 14.3624Z" fill="#8B5CF6"/>
<path id="Vector_12" transform="matrix(0.760092 0.649816 -0.773327 0.634008 176.75 92.8998)" d="M24.5388 0H0V2.06644H24.5388V0Z" fill="#8B5CF6"/>
<path id="Vector_13" transform="matrix(0.760092 0.649816 -0.773327 0.634008 161.252 121.743)" d="M22.7443 0H0V2.06295H22.7443V0Z" fill="#8B5CF6"/>
<path id="Vector_14" transform="matrix(0.760092 0.649816 -0.773327 0.634008 151.667 86.4339)" d="M30.532 0H0V2.24157H30.532V0Z" fill="#8B5CF6"/>
<path id="Vector_15" transform="matrix(0.867565 -0.497324 0.633091 0.774078 117.64 145.198)" d="M49.9316 0H0V2.3341H49.9316V0Z" fill="#8B5CF6"/>
<path id="Vector_16" transform="matrix(0.496702 -0.867921 0.928119 0.372285 158.639 123.024)" d="M34.5767 0H0V2.67931H34.5767V0Z" fill="#8B5CF6"/>
<path id="Vector_17" transform="matrix(-0.977668 0.210155 -0.293206 -0.956049 188.68 116.56)" d="M28.6443 0H0V1.98384H28.6443V0Z" fill="#8B5CF6"/>
<path id="Vector_18" transform="matrix(-0.012508 0.999922 -0.999962 -0.008767 151.152 128.255)" d="M28.4841 0H0V2.47567H28.4841V0Z" fill="#8B5CF6"/>
<path id="Vector_19" transform="matrix(-0.012508 0.999922 -0.999962 -0.008767 155.87 92.0726)" d="M28.4841 0H0V2.47567H28.4841V0Z" fill="#8B5CF6"/>
<path id="Vector_20" transform="matrix(-0.012508 0.999922 -0.999962 -0.008767 77.196 145.554)" d="M62.7095 0H0V2.3295H62.7095V0Z" fill="#8B5CF6"/>
<path id="Vector_21" transform="matrix(0.091523 0.995803 -0.997932 0.064286 51.9541 91.605)" d="M62.7868 0H0V2.32748H62.7868V0Z" fill="#8B5CF6"/>
<path id="Vector_22" transform="matrix(0.387731 0.921773 -0.959182 0.28279 30.1862 81.0635)" d="M47.0863 0H0V2.88116H47.0863V0Z" fill="#8B5CF6"/>
<path id="Vector_23" transform="matrix(-0.576967 0.816768 -0.896171 -0.44371 30.0324 84.0406)" d="M42.6945 0H0V2.64576H42.6945V0Z" fill="#8B5CF6"/>
<path id="Vector_24" transform="matrix(-0.867565 0.497324 -0.633091 -0.774078 69.658 58.1237)" d="M64.9126 0H0V2.7428H64.9126V0Z" fill="#8B5CF6"/>
<path id="Vector_25" transform="matrix(-0.987948 -0.154789 0.218153 -0.975914 202.922 61.2515)" d="M43.9209 0H0V2.52627H43.9209V0Z" fill="#8B5CF6"/>
<path id="Vector_26" transform="matrix(-0.934855 0.35503 -0.476395 -0.879231 112.463 41.2486)" d="M36.571 0H0V2.35234H36.571V0Z" fill="#8B5CF6"/>
<path id="Vector_27" transform="matrix(-0.012508 0.999922 -0.999962 -0.008767 29.1505 54.7045)" d="M30.3959 0H0V2.24609H30.3959V0Z" fill="#8B5CF6"/>
<path id="Vector_28" transform="matrix(0.996648 0.081813 -0.116323 0.993212 56.2797 86.3087)" d="M16.438 0H0V2.13797H16.438V0Z" fill="#8B5CF6"/>
<path id="Vector_29" transform="matrix(0.31637 -0.948636 0.973751 0.227614 65.3334 69.1224)" d="M13.9925 0H0V2.52083H13.9925V0Z" fill="#8B5CF6"/>
<path id="Vector_30" transform="matrix(-0.999962 -0.008767 0.012508 -0.999922 64.32 170.035)" d="M26.5394 0H0V1.19411H26.5394V0Z" fill="#8B5CF6"/>
<path id="Vector_31" transform="matrix(-0.812471 -0.583001 0.715365 -0.698751 75.9315 146.948)" d="M8.23856 0H0V1.80553H8.23856V0Z" fill="#8B5CF6"/>
<path id="Vector_32" transform="matrix(0.558358 0.8296 -0.904418 0.426647 112.664 135.17)" d="M12.8975 0H0V2.33527H12.8975V0Z" fill="#8B5CF6"/>
<path id="Vector_33" transform="matrix(-0.387731 -0.921773 0.959182 -0.28279 26.0384 156.063)" d="M17.5248 0H0V1.34251H17.5248V0Z" fill="#8B5CF6"/>
<path id="Vector_34" transform="matrix(-0.700344 -0.713805 0.823972 -0.56663 41.8162 154.031)" d="M18.5401 0H0V1.28032H18.5401V0Z" fill="#8B5CF6"/>
<path id="Vector_35" transform="matrix(0.715365 -0.698751 0.812471 0.583001 32.006 140.831)" d="M23.5892 0H0V1.53656H23.5892V0Z" fill="#8B5CF6"/>
<path id="Vector_36" transform="matrix(-0.558358 -0.8296 0.904418 -0.426647 32.4981 166.037)" d="M6.03267 0H0V1.33925H6.03267V0Z" fill="#8B5CF6"/>
<path id="Vector_37" transform="matrix(-0.996648 -0.081813 0.116323 -0.993212 63.936 127.062)" d="M54.9259 0H0V1.90008H54.9259V0Z" fill="#8B5CF6"/>
<path id="Vector_38" transform="matrix(-0.812471 -0.583001 0.715365 -0.698751 37.9026 169.752)" d="M7.121 0H0V1.42005H7.121V0Z" fill="#8B5CF6"/>
<path id="Vector_39" transform="matrix(-0.012508 0.999922 -0.999962 -0.008767 96.1024 163.825)" d="M28.4841 0H0V2.47567H28.4841V0Z" fill="#8B5CF6"/>
<path id="Vector_40" transform="matrix(-0.012508 0.999922 -0.999962 -0.008767 119.785 145.887)" d="M28.4841 0H0V2.47567H28.4841V0Z" fill="#8B5CF6"/>
<path id="Vector_41" transform="matrix(-0.012508 0.999922 -0.999962 -0.008767 178.707 33.3016)" d="M62.471 0H0V2.05056H62.471V0Z" fill="#8B5CF6"/>
<path id="Vector_42" transform="matrix(-0.012508 0.999922 -0.999962 -0.008767 132.288 163.498)" d="M15.9688 0H0V1.92743H15.9688V0Z" fill="#8B5CF6"/>
<path id="Vector_43" transform="matrix(0.760092 0.649816 -0.773327 0.634008 131.596 177.894)" d="M11.6799 0H0V2.12532H11.6799V0Z" fill="#8B5CF6"/>
<path id="Vector_44" transform="matrix(-0.823972 0.56663 -0.700344 -0.713805 161.479 173.947)" d="M24.7815 0H0V2.37431H24.7815V0Z" fill="#8B5CF6"/>
<path id="Vector_45" transform="matrix(-0.012508 0.999922 -0.999962 -0.008767 159.818 171.614)" d="M28.4841 0H0V2.47567H28.4841V0Z" fill="#8B5CF6"/>
<path id="Vector_46" transform="matrix(-0.909058 0.416669 -0.547309 -0.83693 77.2994 163.821)" d="M15.3448 0H0V1.67651H15.3448V0Z" fill="#8B5CF6"/>
<path id="Vector_47" transform="matrix(-0.027096 0.999633 -0.99982 -0.018995 64.3728 168.818)" d="M5.38522 0H0V1.92611H5.38522V0Z" fill="#8B5CF6"/>
<path id="Vector_48" transform="translate(24.0216 49.8183)" d="M4.31547 7.2258C6.69884 7.2258 8.63094 5.60825 8.63094 3.6129C8.63094 1.61755 6.69884 0 4.31547 0C1.9321 0 0 1.61755 0 3.6129C0 5.60825 1.9321 7.2258 4.31547 7.2258Z" fill="#8B5CF6"/>
<path id="Vector_49" transform="translate(29.555 18.4102)" d="M4.31547 7.2258C6.69884 7.2258 8.63094 5.60825 8.63094 3.6129C8.63094 1.61755 6.69884 0 4.31547 0C1.9321 0 0 1.61755 0 3.6129C0 5.60825 1.9321 7.2258 4.31547 7.2258Z" fill="#8B5CF6"/>
<path id="Vector_50" transform="translate(67.3332 11.3293)" d="M4.31547 7.2258C6.69884 7.2258 8.63094 5.60825 8.63094 3.6129C8.63094 1.61755 6.69884 0 4.31547 0C1.9321 0 0 1.61755 0 3.6129C0 5.60825 1.9321 7.2258 4.31547 7.2258Z" fill="#8B5CF6"/>
<path id="Vector_51" transform="translate(95.5254)" d="M4.31547 7.2258C6.69884 7.2258 8.63094 5.60825 8.63094 3.6129C8.63094 1.61755 6.69884 0 4.31547 0C1.9321 0 0 1.61755 0 3.6129C0 5.60825 1.9321 7.2258 4.31547 7.2258Z" fill="#8B5CF6"/>
<path id="Vector_52" transform="translate(115.824)" d="M4.31547 7.2258C6.69884 7.2258 8.63094 5.60825 8.63094 3.6129C8.63094 1.61755 6.69884 0 4.31547 0C1.9321 0 0 1.61755 0 3.6129C0 5.60825 1.9321 7.2258 4.31547 7.2258Z" fill="#8B5CF6"/>
<path id="Vector_53" transform="translate(162.624 10.3852)" d="M4.31547 7.2258C6.69884 7.2258 8.63094 5.60825 8.63094 3.6129C8.63094 1.61755 6.69884 0 4.31547 0C1.9321 0 0 1.61755 0 3.6129C0 5.60825 1.9321 7.2258 4.31547 7.2258Z" fill="#8B5CF6"/>
<path id="Vector_54" transform="translate(61.6946 32.0998)" d="M4.31547 7.2258C6.69884 7.2258 8.63094 5.60825 8.63094 3.6129C8.63094 1.61755 6.69884 0 4.31547 0C1.9321 0 0 1.61755 0 3.6129C0 5.60825 1.9321 7.2258 4.31547 7.2258Z" fill="#8B5CF6"/>
<path id="Vector_55" transform="translate(53.2369 43.4292)" d="M4.31547 7.2258C6.69884 7.2258 8.63094 5.60825 8.63094 3.6129C8.63094 1.61755 6.69884 0 4.31547 0C1.9321 0 0 1.61755 0 3.6129C0 5.60825 1.9321 7.2258 4.31547 7.2258Z" fill="#8B5CF6"/>
<path id="Vector_56" transform="translate(197.748 57.0042)" d="M4.31547 7.2258C6.69884 7.2258 8.63094 5.60825 8.63094 3.6129C8.63094 1.61755 6.69884 0 4.31547 0C1.9321 0 0 1.61755 0 3.6129C0 5.60825 1.9321 7.2258 4.31547 7.2258Z" fill="#8B5CF6"/>
<path id="Vector_57" transform="translate(173.619 29.0314)" d="M4.31547 7.2258C6.69884 7.2258 8.63094 5.60825 8.63094 3.6129C8.63094 1.61755 6.69884 0 4.31547 0C1.9321 0 0 1.61755 0 3.6129C0 5.60825 1.9321 7.2258 4.31547 7.2258Z" fill="#8B5CF6"/>
<path id="Vector_58" transform="translate(61.6263 67.4328)" d="M4.31547 7.2258C6.69884 7.2258 8.63094 5.60825 8.63094 3.6129C8.63094 1.61755 6.69884 0 4.31547 0C1.9321 0 0 1.61755 0 3.6129C0 5.60825 1.9321 7.2258 4.31547 7.2258Z" fill="#8B5CF6"/>
<path id="Vector_59" transform="translate(14.6059 134.488)" d="M4.31547 7.2258C6.69884 7.2258 8.63094 5.60825 8.63094 3.6129C8.63094 1.61755 6.69884 0 4.31547 0C1.9321 0 0 1.61755 0 3.6129C0 5.60825 1.9321 7.2258 4.31547 7.2258Z" fill="#8B5CF6"/>
<path id="Vector_60" transform="translate(27.2996 138.785)" d="M4.31547 7.2258C6.69884 7.2258 8.63094 5.60825 8.63094 3.6129C8.63094 1.61755 6.69884 0 4.31547 0C1.9321 0 0 1.61755 0 3.6129C0 5.60825 1.9321 7.2258 4.31547 7.2258Z" fill="#8B5CF6"/>
<path id="Vector_61" transform="translate(35.7574 148.226)" d="M4.31547 7.2258C6.69884 7.2258 8.63094 5.60825 8.63094 3.6129C8.63094 1.61755 6.69884 0 4.31547 0C1.9321 0 0 1.61755 0 3.6129C0 5.60825 1.9321 7.2258 4.31547 7.2258Z" fill="#8B5CF6"/>
<path id="Vector_62" transform="translate(10.3015 84.2244)" d="M4.31547 7.2258C6.69884 7.2258 8.63094 5.60825 8.63094 3.6129C8.63094 1.61755 6.69884 0 4.31547 0C1.9321 0 0 1.61755 0 3.6129C0 5.60825 1.9321 7.2258 4.31547 7.2258Z" fill="#8B5CF6"/>
<path id="Vector_63" transform="translate(23.7756 155.071)" d="M4.31547 7.2258C6.69884 7.2258 8.63094 5.60825 8.63094 3.6129C8.63094 1.61755 6.69884 0 4.31547 0C1.9321 0 0 1.61755 0 3.6129C0 5.60825 1.9321 7.2258 4.31547 7.2258Z" fill="#8B5CF6"/>
<path id="Vector_64" transform="translate(154.307 171.357)" d="M4.31547 7.2258C6.69884 7.2258 8.63094 5.60825 8.63094 3.6129C8.63094 1.61755 6.69884 0 4.31547 0C1.9321 0 0 1.61755 0 3.6129C0 5.60825 1.9321 7.2258 4.31547 7.2258Z" fill="#8B5CF6"/>
<path id="Vector_65" transform="translate(71.1316 207.086)" d="M4.31547 7.2258C6.69884 7.2258 8.63094 5.60825 8.63094 3.6129C8.63094 1.61755 6.69884 0 4.31547 0C1.9321 0 0 1.61755 0 3.6129C0 5.60825 1.9321 7.2258 4.31547 7.2258Z" fill="#8B5CF6"/>
<path id="Vector_66" transform="translate(59.1823 172.882)" d="M4.31547 7.2258C6.69884 7.2258 8.63094 5.60825 8.63094 3.6129C8.63094 1.61755 6.69884 0 4.31547 0C1.9321 0 0 1.61755 0 3.6129C0 5.60825 1.9321 7.2258 4.31547 7.2258Z" fill="#8B5CF6"/>
<path id="Vector_67" transform="translate(52.1092 153.419)" d="M4.31547 7.2258C6.69884 7.2258 8.63094 5.60825 8.63094 3.6129C8.63094 1.61755 6.69884 0 4.31547 0C1.9321 0 0 1.61755 0 3.6129C0 5.60825 1.9321 7.2258 4.31547 7.2258Z" fill="#8B5CF6"/>
<path id="Vector_68" transform="translate(62.8224 123.679)" d="M4.31547 7.2258C6.69884 7.2258 8.63094 5.60825 8.63094 3.6129C8.63094 1.61755 6.69884 0 4.31547 0C1.9321 0 0 1.61755 0 3.6129C0 5.60825 1.9321 7.2258 4.31547 7.2258Z" fill="#8B5CF6"/>
<path id="Vector_69" transform="translate(69.8705 84.9701)" d="M4.31547 7.2258C6.69884 7.2258 8.63094 5.60825 8.63094 3.6129C8.63094 1.61755 6.69884 0 4.31547 0C1.9321 0 0 1.61755 0 3.6129C0 5.60825 1.9321 7.2258 4.31547 7.2258Z" fill="#8B5CF6"/>
<path id="Vector_70" transform="translate(105.534 129.698)" d="M4.31547 7.2258C6.69884 7.2258 8.63094 5.60825 8.63094 3.6129C8.63094 1.61755 6.69884 0 4.31547 0C1.9321 0 0 1.61755 0 3.6129C0 5.60825 1.9321 7.2258 4.31547 7.2258Z" fill="#8B5CF6"/>
<path id="Vector_71" transform="translate(90.2401 189.171)" d="M4.31547 7.2258C6.69884 7.2258 8.63094 5.60825 8.63094 3.6129C8.63094 1.61755 6.69884 0 4.31547 0C1.9321 0 0 1.61755 0 3.6129C0 5.60825 1.9321 7.2258 4.31547 7.2258Z" fill="#8B5CF6"/>
<path id="Vector_72" transform="translate(113.831 172.285)" d="M4.31547 7.2258C6.69884 7.2258 8.63094 5.60825 8.63094 3.6129C8.63094 1.61755 6.69884 0 4.31547 0C1.9321 0 0 1.61755 0 3.6129C0 5.60825 1.9321 7.2258 4.31547 7.2258Z" fill="#8B5CF6"/>
<path id="Vector_73" transform="translate(136.288 182.132)" d="M4.31547 7.2258C6.69884 7.2258 8.63094 5.60825 8.63094 3.6129C8.63094 1.61755 6.69884 0 4.31547 0C1.9321 0 0 1.61755 0 3.6129C0 5.60825 1.9321 7.2258 4.31547 7.2258Z" fill="#8B5CF6"/>
<path id="Vector_74" transform="translate(153.562 197.597)" d="M4.31547 7.2258C6.69884 7.2258 8.63094 5.60825 8.63094 3.6129C8.63094 1.61755 6.69884 0 4.31547 0C1.9321 0 0 1.61755 0 3.6129C0 5.60825 1.9321 7.2258 4.31547 7.2258Z" fill="#8B5CF6"/>
<path id="Vector_75" transform="translate(150 114.936)" d="M4.31547 7.2258C6.69884 7.2258 8.63094 5.60825 8.63094 3.6129C8.63094 1.61755 6.69884 0 4.31547 0C1.9321 0 0 1.61755 0 3.6129C0 5.60825 1.9321 7.2258 4.31547 7.2258Z" fill="#8B5CF6"/>
<path id="Vector_76" transform="translate(175.949 135.64)" d="M2.1311 3.5683C3.30807 3.5683 4.2622 2.76951 4.2622 1.78415C4.2622 0.798791 3.30807 0 2.1311 0C0.954126 0 0 0.798791 0 1.78415C0 2.76951 0.954126 3.5683 2.1311 3.5683Z" fill="#8B5CF6"/>
<path id="Vector_77" transform="translate(145.144 152.866)" d="M4.31547 7.2258C6.69884 7.2258 8.63094 5.60825 8.63094 3.6129C8.63094 1.61755 6.69884 0 4.31547 0C1.9321 0 0 1.61755 0 3.6129C0 5.60825 1.9321 7.2258 4.31547 7.2258Z" fill="#8B5CF6"/>
<path id="Vector_78" transform="matrix(-0.953886 -0.30017 0.409582 -0.912273 153.892 50.2818)" d="M36.8401 0H0V2.33031H36.8401V0Z" fill="#8B5CF6"/>
<path id="Vector_79" transform="matrix(-0.476395 -0.879231 0.934855 -0.35503 175.351 55.3605)" d="M32.5541 0H0V2.64259H32.5541V0Z" fill="#8B5CF6"/>
<path id="Vector_80" transform="matrix(-0.953886 -0.30017 0.409582 -0.912273 161.654 27.7954)" d="M36.8401 0H0V2.33031H36.8401V0Z" fill="#8B5CF6"/>
<path id="Vector_81" transform="matrix(-0.999962 -0.008767 0.012508 -0.999922 128.252 17.2425)" d="M37.5411 0H0V2.27115H37.5411V0Z" fill="#8B5CF6"/>
<path id="Vector_82" transform="matrix(-0.904418 0.426647 -0.558358 -0.8296 93.3477 16.3221)" d="M66.0809 0H0V2.48152H66.0809V0Z" fill="#8B5CF6"/>
<path id="Vector_83" transform="matrix(-0.576967 0.816768 -0.896171 -0.44371 35.9673 42.5406)" d="M13.7998 0H0V2.64216H13.7998V0Z" fill="#8B5CF6"/>
<path id="Vector_84" transform="matrix(-0.576967 0.816768 -0.896171 -0.44371 101.486 3.53266)" d="M15.6784 0H0V2.37652H15.6784V0Z" fill="#8B5CF6"/>
<path id="Vector_85" transform="matrix(0.558358 0.8296 -0.904418 0.426647 122.359 4.08556)" d="M13.7517 0H0V2.64992H13.7517V0Z" fill="#8B5CF6"/>
<path id="Vector_86" transform="matrix(-0.576967 0.816768 -0.896171 -0.44371 68.1939 35.6996)" d="M13.7998 0H0V2.64216H13.7998V0Z" fill="#8B5CF6"/>
<path id="Vector_87" transform="matrix(-0.896171 -0.44371 0.576967 -0.816768 69.5021 54.4161)" d="M15.0229 0H0V2.42706H15.0229V0Z" fill="#8B5CF6"/>
<path id="Vector_88" transform="matrix(-0.012508 0.999922 -0.999962 -0.008767 35.9658 22.7586)" d="M20.6534 0H0V3.29069H20.6534V0Z" fill="#8B5CF6"/>
<path id="Vector_89" transform="matrix(-0.823972 0.56663 -0.700344 -0.713805 73.2347 16.2347)" d="M46.3769 0H0V2.84275H46.3769V0Z" fill="#8B5CF6"/>
<path id="Vector_90" transform="matrix(-0.576967 0.816768 -0.896171 -0.44371 169.889 15.7708)" d="M13.7998 0H0V2.64216H13.7998V0Z" fill="#8B5CF6"/>
</g>
</g>
<defs>
<clipPath id="clip0_2005_106">
<rect width="210" height="297" fill="white"/>
</clipPath>
</defs>
</svg>
